<?xml version="1.0" encoding="UTF-8" standalone="no"?>
<!-- Created with Inkscape (http://www.inkscape.org/) -->

<svg
   width="46.431229mm"
   height="11.6713mm"
   viewBox="0 0 46.431229 11.6713"
   version="1.1"
   id="svg1"
   inkscape:version="1.3 (0e150ed6c4, 2023-07-21)"
   sodipodi:docname="mini2EQ-bakedin.svg"
   xmlns:inkscape="http://www.inkscape.org/namespaces/inkscape"
   xmlns:sodipodi="http://sodipodi.sourceforge.net/DTD/sodipodi-0.dtd"
   xmlns="http://www.w3.org/2000/svg"
   xmlns:svg="http://www.w3.org/2000/svg">
  <sodipodi:namedview
     id="namedview1"
     pagecolor="#ffffff"
     bordercolor="#000000"
     borderopacity="0.25"
     inkscape:showpageshadow="2"
     inkscape:pageopacity="0.0"
     inkscape:pagecheckerboard="0"
     inkscape:deskcolor="#d1d1d1"
     inkscape:document-units="mm"
     inkscape:zoom="2.955623"
     inkscape:cx="52.104074"
     inkscape:cy="29.942926"
     inkscape:window-width="2560"
     inkscape:window-height="1371"
     inkscape:window-x="2560"
     inkscape:window-y="32"
     inkscape:window-maximized="1"
     inkscape:current-layer="layer1" />
  <defs
     id="defs1" />
  <g
     inkscape:label="Layer 1"
     inkscape:groupmode="layer"
     id="layer1"
     transform="translate(-75.142664,-107.77824)">
    <path
       style="font-weight:bold;font-size:12.7px;font-family:Kalam;-inkscape-font-specification:'Kalam, Bold';stroke-width:0.264583"
       d="m 83.816764,110.55954 q 0.4953,0 0.8255,0.6604 0.3302,0.6604 0.3302,1.2065 0,0.5461 -0.2159,1.6256 -0.2032,1.0668 -0.6604,2.0701 -0.4445,0.9906 -0.9652,0.9906 -0.4191,0 -0.4191,-0.5715 0,-0.5715 0.3302,-1.8669 0.3302,-1.2954 0.3302,-1.7018 0,-0.4064 -0.127,-0.4064 -0.2667,0 -0.635,0.5842 -0.3683,0.5842 -0.889,1.5621 -0.508,0.9779 -0.635,1.2573 -0.127,0.2794 -0.2159,0.4445 -0.0762,0.1651 -0.1778,0.3429 -0.4064,0.6731 -1.0795,0 -0.3429,-0.3429 -0.3429,-0.6223 0,-0.0508 0.2032,-0.9652 0.2159,-0.9271 0.2159,-2.1082 0,-0.4953 -0.1143,-0.4953 -0.1524,0 -0.3556,0.3048 -0.2032,0.3048 -0.6223,1.1049 -0.4191,0.8001 -0.7239,1.3208 -1.0668,1.8161 -1.6256,1.8161 -0.2794,0 -0.6985,-0.4699 -0.4064,-0.4699 -0.4064,-0.7112 0,-0.254 0.2794,-1.1938 0.2921,-0.9525 0.3683,-2.0193 0.0889,-1.0668 0.1524,-1.6637 0.0762,-0.5969 0.3048,-0.5969 0.4826,0 0.9271,0.4064 0.4572,0.3937 0.4572,0.7239 0,0.7493 -0.5461,2.6162 0.889,-2.1209 1.4986,-2.8702 0.6477,-0.7747 1.2446,-0.7747 0.3302,0 0.8128,0.6096 0.4953,0.6096 0.4953,1.143 0,0.5207 -0.0127,0.9144 0.3937,-0.9906 1.1938,-1.8288 0.8001,-0.8382 1.4986,-0.8382 z m 3.098803,-1.5875 q 0,-0.3302 0.2921,-0.6731 0.3048,-0.3556 0.5842,-0.3556 0.2921,0 0.6858,0.6858 0.3937,0.6858 0.3937,1.0033 0,0.3048 -0.2032,0.4699 -0.2032,0.1651 -0.4191,0.1651 -0.3683,0 -0.8509,-0.4826 -0.4826,-0.4826 -0.4826,-0.8128 z m 0.1905,1.5875 q 0.4445,0 0.7874,0.508 0.3556,0.508 0.3556,0.9779 0,0.2413 -0.4445,1.7399 -0.4318,1.4859 -0.8636,2.8194 -0.1524,0.4953 -0.6223,0.4953 -0.2794,0 -0.4953,-0.2032 -0.2032,-0.2159 -0.2032,-0.5461 0,-0.3429 0.3175,-1.6764 0.3302,-1.3462 0.4953,-2.286 0.1778,-0.9525 0.3175,-1.3843 0.1524,-0.4445 0.3556,-0.4445 z m 6.540503,0 q 0.6604,0 1.1557,0.5969 0.508,0.5842 0.508,1.2573 0,1.0795 -0.3556,2.2606 -0.3429,1.1684 -0.762,1.8034 -0.4064,0.635 -0.8382,0.635 -0.4191,0 -0.4191,-0.5969 0,-0.4572 0.4191,-1.8415 0.3175,-1.143 0.3175,-1.6383 0,-0.4953 -0.127,-0.4953 -0.1651,0 -0.3302,0.1651 -0.1524,0.1651 -0.254,0.2921 -0.1016,0.127 -0.2413,0.3302 -0.127,0.1905 -0.2286,0.3556 -0.0889,0.1524 -0.2413,0.4064 -0.1397,0.2413 -0.2286,0.4064 -0.0889,0.1524 -0.2286,0.4064 -1.1811,2.2098 -1.8542,2.2098 -0.2667,0 -0.6731,-0.4572 -0.4064,-0.4699 -0.4064,-0.6858 0,-0.1397 0.1778,-0.5969 0.1905,-0.4699 0.2667,-0.7112 0.0889,-0.254 0.1397,-0.5334 0.0635,-0.2794 0.1016,-0.5969 0.0381,-0.3302 0.0508,-0.508 0.0254,-0.1778 0.0508,-0.5588 0.1143,-1.651 0.1905,-1.8288 0.0889,-0.1778 0.1905,-0.1778 0.4826,0 0.9271,0.4064 0.4445,0.3937 0.4445,0.7239 0,0.7874 -0.4064,2.2606 0.8255,-1.4478 1.4986,-2.3622 0.6858,-0.9271 1.1557,-0.9271 z m 3.60681,-1.5875 q 0,-0.3302 0.2921,-0.6731 0.3048,-0.3556 0.5842,-0.3556 0.2921,0 0.6858,0.6858 0.3937,0.6858 0.3937,1.0033 0,0.3048 -0.2032,0.4699 -0.2032,0.1651 -0.4191,0.1651 -0.3683,0 -0.8509,-0.4826 -0.4826,-0.4826 -0.4826,-0.8128 z m 0.1905,1.5875 q 0.4445,0 0.7874,0.508 0.3556,0.508 0.3556,0.9779 0,0.2413 -0.4445,1.7399 -0.4318,1.4859 -0.8636,2.8194 -0.1524,0.4953 -0.6223,0.4953 -0.2794,0 -0.4953,-0.2032 -0.2032,-0.2159 -0.2032,-0.5461 0,-0.3429 0.3175,-1.6764 0.3302,-1.3462 0.4953,-2.286 0.1778,-0.9525 0.3175,-1.3843 0.1524,-0.4445 0.3556,-0.4445 z m 3.8481,4.8133 q 2.2733,-0.4191 3.4417,-0.4191 1.1811,0 1.1811,0.508 0,0.4826 -2.0193,1.0414 -2.0066,0.5588 -3.0861,0.5588 -0.4445,0 -1.079496,-0.5715 -0.635,-0.5715 -0.635,-1.016 0,-0.2921 1.625596,-1.6256 0.6731,-0.5588 1.3462,-1.1684 0.6731,-0.6223 1.143,-1.27 0.4826,-0.6477 0.4826,-1.1557 0,-0.5207 -0.4826,-0.5207 -0.3683,0 -0.6604,0.2794 -0.2794,0.2667 -0.4445,0.5461 -0.1524,0.2667 -0.2286,0.2667 -0.3302,0 -0.8382,-0.3556 -0.4953,-0.3683 -0.4953,-0.635 0,-0.7239 0.762,-1.3716 0.7747,-0.6604 1.8542,-0.6604 1.0922,0 1.7145,0.6731 0.6223,0.6604 0.6223,1.6891 0,1.3843 -1.1938,2.7813 -1.1811,1.397 -3.0099,2.4257 z m 8.25501,-3.6068 q 0.6731,0 1.4478,-0.0635 0.7747,-0.0762 0.9525,-0.0762 0.1905,0 0.2921,0.0889 0.1143,0.0889 0.1143,0.2159 0,0.5588 -1.0541,0.889 -1.0541,0.3302 -2.2479,0.381 -0.4953,1.5367 -0.4953,1.9431 0,0.2159 0.2159,0.2159 1.4478,0 2.9845,-0.381 0.5207,-0.1397 0.5969,-0.1397 0.2413,0 0.2413,0.3429 0,0.4572 -0.6731,0.889 -0.6731,0.4318 -1.6891,0.6858 -1.016,0.254 -1.9939,0.254 -0.5842,0 -1.0541,-0.4318 -0.4699,-0.4445 -0.4699,-1.0287 0,-0.5969 0.6477,-2.9718 0.6604,-2.3749 0.6985,-3.5814 -0.0127,-0.0381 -0.0127,-0.1524 0,-0.1778 0.0508,-0.2794 0.1397,-0.3556 0.7747,-0.4445 0.635,-0.1016 2.286,-0.1016 2.7432,0 2.7432,0.6096 0,0.3937 -0.6731,0.5461 -0.4572,0.1016 -1.2573,0.1905 -1.2319,0.1397 -2.1971,0.4064 0,0.8636 -0.3048,1.9939 z m 8.7503,-3.9878 q 1.27,0 2.2733,1.0795 1.0033,1.0668 1.0033,2.3495 0,1.27 -0.6096,2.6289 -0.6096,1.3462 -1.6002,2.2352 0.1016,0.2921 0.2667,0.7366 0.1651,0.4445 0.254,0.6858 0.0889,0.254 0.1905,0.5588 0.1778,0.5715 0.1778,0.8636 0,0.3048 -0.1016,0.4191 -0.1016,0.1143 -0.3683,0.1143 -0.762,0 -1.7653,-2.5527 -0.5461,0.2032 -1.0795,0.2032 -0.9906,0 -2.0701,-0.9398 -1.0668,-0.9525 -1.0668,-1.8161 0,-1.1684 0.4445,-2.3876 0.4445,-1.2319 1.1049,-2.1209 0.6731,-0.9017 1.4732,-1.4732 0.8001,-0.5842 1.4732,-0.5842 z m 0.1524,1.6637 h -0.0381 q -0.2286,0.1778 -0.2286,0.3683 0,2.1082 0.5842,4.3307 1.0033,-1.4224 1.0033,-2.7305 0,-0.9144 -0.4445,-1.4351 -0.4318,-0.5334 -0.8763,-0.5334 z m -1.8288,1.9558 v -0.1524 q -0.9525,1.6129 -0.9525,3.0988 0,0.4953 0.4699,0.8636 0.4826,0.3556 0.762,0.3556 0.2794,0 0.5969,-0.1778 -0.381,-1.2065 -0.635,-2.3495 -0.2413,-1.143 -0.2413,-1.6383 z"
       id="text1"
       aria-label="mini2EQ" />
  </g>
</svg>
